<svg width="64" height="12" viewBox="0 0 64 12" fill="none" xmlns="http://www.w3.org/2000/svg">
<path d="M58 0L59.8057 3.5147L63.7063 4.1459L60.9216 6.9493L61.5267 10.8541L58 9.072L54.4733 10.8541L55.0784 6.9493L52.2937 4.1459L56.1943 3.5147L58 0Z" fill="#EEEDF5"/>
<path d="M45 0L46.8057 3.5147L50.7063 4.1459L47.9216 6.9493L48.5267 10.8541L45 9.072L41.4733 10.8541L42.0784 6.9493L39.2937 4.1459L43.1943 3.5147L45 0Z" fill="#EEEDF5"/>
<path d="M32 0L33.8057 3.5147L37.7063 4.1459L34.9216 6.9493L35.5267 10.8541L32 9.072L28.4733 10.8541L29.0784 6.9493L26.2937 4.1459L30.1943 3.5147L32 0Z" fill="#EEEDF5"/>
<path d="M19 0L20.8057 3.5147L24.7063 4.1459L21.9216 6.9493L22.5267 10.8541L19 9.072L15.4733 10.8541L16.0784 6.9493L13.2937 4.1459L17.1943 3.5147L19 0Z" fill="#EEEDF5"/>
<path d="M6 0L7.80568 3.5147L11.7063 4.1459L8.92165 6.9493L9.52671 10.8541L6 9.072L2.47329 10.8541L3.07835 6.9493L0.293661 4.1459L4.19432 3.5147L6 0Z" fill="#EEEDF5"/>
</svg>
