<svg width="40" height="40" viewBox="0 0 40 40" fill="none" xmlns="http://www.w3.org/2000/svg">
<path d="M15.9989 24.4567H23.9986V11.1167H29.9984L19.9988 0L9.99912 11.1167H15.9989V24.4567ZM38.6741 27.8628C38.2541 27.3648 35.4522 24.032 34.6523 23.1627C34.0917 22.5653 33.3449 22.2322 32.5683 22.2333H29.0545L35.1822 28.89H28.0945C27.9982 28.888 27.9031 28.9143 27.8188 28.9662C27.7345 29.0182 27.6641 29.0939 27.6145 29.1857L25.9826 33.35H14.015L12.383 29.1857C12.3332 29.0942 12.2626 29.0187 12.1784 28.9668C12.0942 28.915 11.9993 28.8885 11.9031 28.89H4.81531L10.9411 22.2333H7.42921C6.63524 22.2333 5.87727 22.5869 5.34529 23.1627C4.54531 24.0342 1.74341 27.367 1.32343 27.8628C0.345462 29.0212 -0.19252 29.9439 0.0634714 31.0844L1.18543 37.919C1.44142 39.0618 2.56738 40 3.68934 40H36.3122C37.4342 40 38.5601 39.0618 38.8161 37.919L39.9381 31.0844C40.1901 29.9439 39.6541 29.0212 38.6741 27.8628Z" fill="#E0E0E0"/>
</svg>
